<?xml version="1.0" encoding="utf-8"?>
<!-- Generator: Adobe Illustrator 24.1.1, SVG Export Plug-In . SVG Version: 6.00 Build 0)  -->
<svg version="1.1"
	 id="svg27" xmlns:cc="http://creativecommons.org/ns#" xmlns:dc="http://purl.org/dc/elements/1.1/" xmlns:inkscape="http://www.inkscape.org/namespaces/inkscape" xmlns:rdf="http://www.w3.org/1999/02/22-rdf-syntax-ns#" xmlns:sodipodi="http://sodipodi.sourceforge.net/DTD/sodipodi-0.dtd" xmlns:svg="http://www.w3.org/2000/svg"
	 xmlns="http://www.w3.org/2000/svg" xmlns:xlink="http://www.w3.org/1999/xlink" x="0px" y="0px" viewBox="0 0 65 63.6"
	 style="enable-background:new 0 0 65 63.6;" xml:space="preserve">
<style type="text/css">
	.st0{fill:#2BBBE6;}
	.st1{fill:#2151A2;}
	.st2{fill:#3281C4;}
</style>
<sodipodi:namedview  bordercolor="#666666" borderopacity="1.0" fit-margin-bottom="0" fit-margin-left="0" fit-margin-right="0" fit-margin-top="0" id="base" inkscape:current-layer="layer1" inkscape:cx="29.58201" inkscape:cy="39.499381" inkscape:document-rotation="0" inkscape:document-units="mm" inkscape:pageopacity="0" inkscape:pageshadow="2" inkscape:window-height="1051" inkscape:window-maximized="1" inkscape:window-width="1920" inkscape:window-x="3840" inkscape:window-y="1080" inkscape:zoom="5.6" pagecolor="#ffffff" showgrid="false">
	</sodipodi:namedview>
<g>
	<g>
		<g>
			<g>
				<g>
					<path class="st0" d="M50,50"/>
					<g>
						<g>
							<path class="st0" d="M64.3,38.2c-0.5,6.6-6.2,11.6-13,11.8c-0.5,0-0.9,0-1.4,0c-7.5-0.5-13.1-6.6-12.6-13.6
								c0.1-1.6,0.5-3.1,1.2-4.4c2.3-4.7,7.4-7.7,13.2-7.3C59.1,25.1,64.8,31.2,64.3,38.2z"/>
						</g>
					</g>
				</g>
			</g>
			<polygon class="st0" points="31.7,49.6 37.9,33 51.2,50 			"/>
		</g>
	</g>
	<circle class="st1" cx="33.9" cy="30.5" r="19.1"/>
	<g>
		<g>
			<path class="st2" d="M15,50"/>
			<g>
				<g>
					<path class="st2" d="M0.7,38.2c0.5,6.6,6.2,11.6,13,11.8c0.5,0,0.9,0,1.4,0c7.5-0.5,13.1-6.6,12.6-13.6
						c-0.1-1.6-0.5-3.1-1.2-4.4c-2.3-4.7-7.4-7.7-13.2-7.3C5.8,25.1,0.2,31.2,0.7,38.2z"/>
				</g>
			</g>
		</g>
	</g>
	<polygon class="st2" points="33.2,49.6 27,33 13.8,50 	"/>
</g>
</svg>
